<?xml version="1.0" encoding="utf-8"?>
<!-- Generator: Adobe Illustrator 26.4.1, SVG Export Plug-In . SVG Version: 6.00 Build 0)  -->
<svg version="1.1" id="Layer_1" xmlns="http://www.w3.org/2000/svg" xmlns:xlink="http://www.w3.org/1999/xlink" x="0px" y="0px"
	 viewBox="0 0 580 141" style="enable-background:new 0 0 580 141;" xml:space="preserve">
<style type="text/css">
	.st0{fill:#6F6F6E;}
	.st1{fill:#1D4B87;}
</style>
<polygon class="st0" points="26.2,90.7 5.3,90.7 19.4,10.2 40.2,10.2 "/>
<polygon class="st0" points="57.1,10.2 78,10.2 107.9,59.5 116.5,10.2 137.4,10.2 123.3,90.7 102.4,90.7 72.5,41.5 63.9,90.7 
	43.1,90.7 "/>
<path class="st0" d="M195.4,30.9c-4-3.6-8-5.4-12.3-5.4c-5.7,0-9.9,2.9-10.7,7.1c-2,11.2,33.3,5.3,28.8,31.5
	c-0.8,4.7-3.5,11.6-5.6,14.8c-5.8,8.3-17.9,14.1-29.9,14.1c-10.4,0-20-3-27.4-9.2l11.9-16.8c5.4,5.5,10.9,8.2,17,8.2
	c6.2,0,10.7-3.1,11.5-8c2.2-12.7-33.4-5.2-28.7-32.1c2.9-16.3,15.7-27.1,32.1-27.1c8.4,0,17,2.3,24.3,6.5L195.4,30.9z"/>
<path class="st0" d="M236.9,54.1c-1.7,9.7-1.7,11-0.2,14.4c1.7,4,5.6,6.2,10.5,6.2c5.4,0,10.7-2.5,13.4-6.5c2.5-3.4,3.1-5.3,4.6-14
	l7.6-43.6h20.9l-8.1,46.3c-2.1,12.1-5.1,18.2-12.2,24.9c-8.1,7.6-18,11.3-30.1,11.3c-11.8,0-22-4.7-26.2-12.1
	c-3.2-5.7-3.7-12.1-1.6-24.1l8.1-46.3h20.9L236.9,54.1z"/>
<path class="st0" d="M363.4,91h-25.9l-14.6-30.9L317.5,91h-20.9l14.1-80.5h32.6c15.7,0,25,9,22.1,25.5c-2,11.2-10.1,19.5-21.4,22.1
	L363.4,91z M325.2,46.6c7.2,0,16.9-0.5,18.5-10c1.6-9.3-8-9.9-15-9.9L325.2,46.6z"/>
<rect x="389" y="6.6" class="st1" width="30.1" height="123.9"/>
<path class="st1" d="M554.7,113l0.9-1c5.2-5.7,9.3-12.2,12.1-19.5c2.8-7.3,4.2-15.3,4.2-23.9c0-9.2-1.7-17.8-5.1-25.8
	c-3.4-7.9-8.2-14.9-14.2-20.8c-6.1-5.9-13.4-10.6-21.8-13.9c-8.4-3.3-17.8-5-27.7-5c-10.1,0-19.4,1.7-27.8,5
	c-8.4,3.3-15.6,8-21.6,13.9c-6,5.9-10.8,12.9-14.1,20.8c-3.4,7.9-5.1,16.6-5.1,25.8c0,9.2,1.7,17.8,5.1,25.8
	c3.4,7.9,8.1,14.9,14.1,20.8c6,5.9,13.3,10.6,21.6,13.9c8.4,3.3,17.7,5,27.8,5c6,0,11.8-0.6,17.2-1.9c5.4-1.3,10.6-3,15.5-5.2
	l0.9-0.4l11.8,12.1l26.8-4.2L554.7,113z M503.2,105.3c-20.7,0-37.5-16.4-37.5-36.6c0-20.2,16.8-36.6,37.5-36.6
	c20.7,0,37.5,16.4,37.5,36.6C540.7,88.8,523.9,105.3,503.2,105.3"/>
<rect x="5.3" y="106.4" class="st0" width="3.6" height="24.4"/>
<path class="st0" d="M12.9,114.4h3.3v1.9c1-1.4,2.2-2.1,3.7-2.1c1.5,0,2.5,0.5,3.1,1.6c0.3,0.6,0.5,1.7,0.5,3.4v11.6h-3.3l0-10.9
	c0-1.1-0.1-1.9-0.4-2.4c-0.3-0.5-0.8-0.7-1.5-0.7c-0.4,0-0.7,0.1-1,0.2c-0.3,0.1-0.5,0.3-0.6,0.6c-0.2,0.3-0.3,0.6-0.4,1
	c-0.1,0.4-0.1,1-0.1,1.6v10.6h-3.3V114.4z"/>
<polygon class="st0" points="27.8,109.8 31.1,109.8 31.1,114.4 32.9,114.4 32.9,116.8 31.1,116.8 31.1,130.8 27.8,130.8 27.8,116.8 
	25.9,116.8 25.9,114.4 27.8,114.4 "/>
<path class="st0" d="M42.3,125.3h3.1c-0.2,3.8-2,5.8-5.2,5.8c-1,0-1.8-0.2-2.5-0.5c-0.7-0.3-1.3-0.8-1.7-1.5c-0.5-0.7-0.8-1.6-1-2.6
	c-0.2-1.1-0.3-2.3-0.3-3.8c0-2.9,0.4-5,1.3-6.4c0.9-1.4,2.3-2.1,4.1-2.1c3.6,0,5.4,2.9,5.4,8.7v0.4h-7.6c0,3.5,0.8,5.2,2.3,5.2
	C41.6,128.4,42.3,127.4,42.3,125.3 M42.1,121c-0.1-1.7-0.4-2.8-0.6-3.4c-0.3-0.6-0.8-0.9-1.5-0.9c-0.7,0-1.2,0.3-1.5,0.9
	c-0.3,0.5-0.5,1.7-0.6,3.4H42.1z"/>
<rect x="48.5" y="103.9" class="st0" width="3.3" height="26.8"/>
<rect x="55.6" y="103.9" class="st0" width="3.3" height="26.8"/>
<path class="st0" d="M64.3,107.5c0.6,0,1.1,0.2,1.6,0.6c0.4,0.4,0.7,0.9,0.7,1.4c0,0.6-0.2,1.1-0.7,1.5c-0.4,0.4-1,0.6-1.6,0.6
	c-0.6,0-1.2-0.2-1.6-0.6c-0.4-0.4-0.6-0.9-0.6-1.5c0-0.5,0.2-1,0.7-1.4C63.1,107.7,63.7,107.5,64.3,107.5 M62.7,114.4h3.4v16.3h-3.4
	V114.4z"/>
<path class="st0" d="M76.8,114.4h3.4v16.9c0,2-0.2,3.4-0.7,4.2c-0.8,1.4-2.5,2.1-4.9,2.1c-1.6,0-2.9-0.4-3.8-1.2
	c-0.9-0.8-1.4-2-1.4-3.4l0-0.5h3.2c0,1.7,0.7,2.6,2.1,2.6c0.8,0,1.3-0.2,1.6-0.7c0.3-0.4,0.4-1.3,0.4-2.5v-3.1
	c-0.7,1.5-1.8,2.2-3.3,2.2c-1.5,0-2.6-0.7-3.3-2c-0.7-1.3-1.1-3.4-1.1-6.2c0-3,0.3-5.2,1-6.6c0.7-1.4,1.8-2,3.4-2
	c0.7,0,1.4,0.2,1.8,0.5c0.5,0.3,1,0.9,1.5,1.7V114.4z M76.9,122.7c0-3.9-0.7-5.9-2.2-5.9c-0.7,0-1.2,0.4-1.6,1.3
	c-0.3,0.9-0.5,2.3-0.5,4.2c0,2.1,0.2,3.6,0.5,4.5c0.3,0.9,0.9,1.3,1.7,1.3c0.8,0,1.3-0.4,1.6-1.2C76.7,126.4,76.9,124.9,76.9,122.7"
	/>
<path class="st0" d="M90.9,125.3H94c-0.2,3.8-2,5.8-5.2,5.8c-1,0-1.8-0.2-2.5-0.5c-0.7-0.3-1.3-0.8-1.7-1.5c-0.5-0.7-0.8-1.6-1-2.6
	c-0.2-1.1-0.3-2.3-0.3-3.8c0-2.9,0.4-5,1.3-6.4c0.9-1.4,2.3-2.1,4.1-2.1c3.6,0,5.4,2.9,5.4,8.7v0.4h-7.6c0,3.5,0.8,5.2,2.3,5.2
	C90.2,128.4,90.9,127.4,90.9,125.3 M90.8,121c-0.1-1.7-0.4-2.8-0.6-3.4c-0.3-0.6-0.8-0.9-1.5-0.9c-0.7,0-1.2,0.3-1.5,0.9
	c-0.3,0.5-0.5,1.7-0.6,3.4H90.8z"/>
<path class="st0" d="M97.1,114.4h3.3v1.9c1-1.4,2.2-2.1,3.7-2.1c1.5,0,2.5,0.5,3.1,1.6c0.3,0.6,0.5,1.7,0.5,3.4v11.6h-3.3l0-10.9
	c0-1.1-0.1-1.9-0.4-2.4c-0.3-0.5-0.8-0.7-1.5-0.7c-0.4,0-0.7,0.1-1,0.2c-0.3,0.1-0.5,0.3-0.6,0.6c-0.2,0.3-0.3,0.6-0.4,1
	c-0.1,0.4-0.1,1-0.1,1.6v10.6h-3.3V114.4z"/>
<polygon class="st0" points="112,109.8 115.3,109.8 115.3,114.4 117.2,114.4 117.2,116.8 115.3,116.8 115.3,130.8 112,130.8 
	112,116.8 110.2,116.8 110.2,114.4 112,114.4 "/>
<rect x="127.1" y="106.4" class="st0" width="3.6" height="24.4"/>
<path class="st0" d="M134.7,114.4h3.3v1.9c1-1.4,2.2-2.1,3.7-2.1c1.5,0,2.5,0.5,3.1,1.6c0.3,0.6,0.5,1.7,0.5,3.4v11.6h-3.3l0-10.9
	c0-1.1-0.1-1.9-0.4-2.4c-0.3-0.5-0.8-0.7-1.5-0.7c-0.4,0-0.7,0.1-1,0.2c-0.3,0.1-0.5,0.3-0.6,0.6c-0.2,0.3-0.3,0.6-0.4,1
	c-0.1,0.4-0.1,1-0.1,1.6v10.6h-3.3V114.4z"/>
<path class="st0" d="M156.2,114.8v2.8c-0.8-0.5-1.7-0.8-2.6-0.8c-0.3,0-0.6,0-0.8,0.1c-0.3,0.1-0.5,0.2-0.7,0.4
	c-0.2,0.2-0.3,0.4-0.5,0.6c-0.1,0.2-0.2,0.5-0.2,0.7c0,0.8,0.8,1.7,2.3,2.8c0.6,0.4,1.2,0.9,1.6,1.2c0.4,0.4,0.7,0.7,1,1.1
	c0.5,0.7,0.7,1.5,0.7,2.5c0,1.5-0.5,2.6-1.4,3.5c-0.9,0.9-2.2,1.3-3.8,1.3c-1,0-1.9-0.3-2.9-0.8v-2.9c1,0.7,1.9,1,2.7,1
	c1.5,0,2.3-0.7,2.3-2c0-0.5-0.1-0.9-0.4-1.3c-0.1-0.2-0.3-0.4-0.6-0.6c-0.3-0.2-0.6-0.5-1-0.8c-1.4-1-2.4-1.8-2.9-2.5
	c-0.5-0.7-0.7-1.5-0.7-2.5c0-1.3,0.4-2.4,1.3-3.2c0.9-0.8,2.1-1.2,3.5-1.2C154.2,114,155.2,114.3,156.2,114.8"/>
<path class="st0" d="M159.7,114.4h3.3v10.9c0,1,0.2,1.7,0.5,2.2c0.3,0.4,0.8,0.6,1.5,0.6c0.8,0,1.3-0.2,1.6-0.6
	c0.3-0.4,0.5-1.1,0.5-2.1v-1.3v-9.8h3.3v9.8c0,2.3-0.2,3.8-0.6,4.6c-0.8,1.5-2.4,2.2-4.9,2.2c-1.9,0-3.3-0.4-4.1-1.3
	c-0.8-0.9-1.2-2.4-1.2-4.5V114.4z"/>
<path class="st0" d="M174.3,114.4h3.3v2c0.6-0.9,1.1-1.5,1.7-1.8c0.6-0.3,1.3-0.5,2.2-0.6v3.2c-0.2,0-0.4,0-0.6,0
	c-1.2,0-2.1,0.3-2.6,0.8c-0.5,0.5-0.8,1.5-0.8,2.9v9.9h-3.3V114.4z"/>
<path class="st0" d="M194.3,114.4v16.3H191v-2.1c-0.5,0.9-1,1.5-1.4,1.8c-0.5,0.3-1.1,0.5-1.9,0.5c-1.5,0-2.6-0.7-3.3-2.1
	c-0.7-1.4-1-3.6-1-6.5c0-2.8,0.3-4.9,1-6.2c0.7-1.3,1.8-2,3.3-2c1.4,0,2.5,0.7,3.3,2.1v-1.8H194.3z M186.8,122.5
	c0,2.1,0.2,3.6,0.5,4.5c0.3,0.9,0.9,1.3,1.7,1.3c0.7,0,1.3-0.4,1.6-1.3c0.3-0.9,0.5-2.4,0.5-4.4c0-2-0.2-3.4-0.5-4.4
	c-0.3-0.9-0.9-1.3-1.6-1.3c-0.8,0-1.4,0.4-1.7,1.3C187,118.9,186.8,120.4,186.8,122.5"/>
<path class="st0" d="M198.1,114.4h3.3v1.9c1-1.4,2.2-2.1,3.7-2.1c1.5,0,2.5,0.5,3.1,1.6c0.3,0.6,0.5,1.7,0.5,3.4v11.6h-3.3l0-10.9
	c0-1.1-0.1-1.9-0.4-2.4c-0.3-0.5-0.8-0.7-1.5-0.7c-0.4,0-0.7,0.1-1,0.2c-0.3,0.1-0.5,0.3-0.6,0.6c-0.2,0.3-0.3,0.6-0.4,1
	c-0.1,0.4-0.1,1-0.1,1.6v10.6h-3.3V114.4z"/>
<path class="st0" d="M220,114.7v3.1c-0.5-0.5-1-0.8-1.7-0.8c-1.8,0-2.8,1.8-2.8,5.4c0,3.8,0.9,5.7,2.7,5.7c0.5,0,1.1-0.2,1.7-0.6
	v2.8c-0.9,0.4-1.8,0.6-2.7,0.6c-3.6,0-5.4-2.8-5.4-8.3c0-2.9,0.4-5.1,1.3-6.5c0.9-1.4,2.3-2.1,4.1-2.1
	C218.3,114.2,219.2,114.3,220,114.7"/>
<path class="st0" d="M229.8,125.3h3.1c-0.2,3.8-2,5.8-5.2,5.8c-1,0-1.8-0.2-2.5-0.5c-0.7-0.3-1.3-0.8-1.7-1.5
	c-0.5-0.7-0.8-1.6-1-2.6c-0.2-1.1-0.3-2.3-0.3-3.8c0-2.9,0.4-5,1.3-6.4c0.9-1.4,2.3-2.1,4.1-2.1c3.6,0,5.4,2.9,5.4,8.7v0.4h-7.6
	c0,3.5,0.8,5.2,2.3,5.2C229.1,128.4,229.8,127.4,229.8,125.3 M229.6,121c-0.1-1.7-0.4-2.8-0.6-3.4c-0.3-0.6-0.8-0.9-1.5-0.9
	c-0.7,0-1.2,0.3-1.5,0.9c-0.3,0.5-0.5,1.7-0.6,3.4H229.6z"/>
<polygon class="st0" points="241.5,106.4 253.3,106.4 253.3,109.3 249.2,109.3 249.2,130.8 245.7,130.8 245.7,109.3 241.5,109.3 "/>
<path class="st0" d="M261.1,125.3h3.1c-0.2,3.8-2,5.8-5.2,5.8c-1,0-1.8-0.2-2.5-0.5c-0.7-0.3-1.3-0.8-1.7-1.5
	c-0.5-0.7-0.8-1.6-1-2.6c-0.2-1.1-0.3-2.3-0.3-3.8c0-2.9,0.4-5,1.3-6.4c0.9-1.4,2.3-2.1,4.1-2.1c3.6,0,5.4,2.9,5.4,8.7v0.4h-7.6
	c0,3.5,0.8,5.2,2.3,5.2C260.4,128.4,261.1,127.4,261.1,125.3 M260.9,121c-0.1-1.7-0.4-2.8-0.6-3.4c-0.3-0.6-0.8-0.9-1.5-0.9
	c-0.7,0-1.2,0.3-1.5,0.9c-0.3,0.5-0.5,1.7-0.6,3.4H260.9z"/>
<path class="st0" d="M274.6,114.7v3.1c-0.5-0.5-1-0.8-1.7-0.8c-1.8,0-2.8,1.8-2.8,5.4c0,3.8,0.9,5.7,2.7,5.7c0.5,0,1.1-0.2,1.7-0.6
	v2.8c-0.9,0.4-1.8,0.6-2.7,0.6c-3.6,0-5.4-2.8-5.4-8.3c0-2.9,0.4-5.1,1.3-6.5c0.9-1.4,2.3-2.1,4.1-2.1
	C272.9,114.2,273.8,114.3,274.6,114.7"/>
<path class="st0" d="M277.3,103.9h3.3v12.4c1-1.4,2.2-2.1,3.7-2.1c1.5,0,2.5,0.5,3.1,1.6c0.3,0.6,0.5,1.7,0.5,3.4v11.6h-3.3l0-10.9
	c0-1.1-0.1-1.9-0.4-2.4c-0.3-0.5-0.8-0.7-1.5-0.7c-0.4,0-0.7,0.1-1,0.2c-0.3,0.1-0.5,0.3-0.6,0.6c-0.2,0.3-0.3,0.6-0.4,1
	c-0.1,0.4-0.1,1-0.1,1.6v10.6h-3.3V103.9z"/>
<path class="st0" d="M291.7,114.4h3.3v1.9c1-1.4,2.2-2.1,3.7-2.1c1.5,0,2.5,0.5,3.1,1.6c0.3,0.6,0.5,1.7,0.5,3.4v11.6h-3.3l0-10.9
	c0-1.1-0.1-1.9-0.4-2.4c-0.3-0.5-0.8-0.7-1.5-0.7c-0.4,0-0.7,0.1-1,0.2c-0.3,0.1-0.5,0.3-0.6,0.6c-0.2,0.3-0.3,0.6-0.4,1
	c-0.1,0.4-0.1,1-0.1,1.6v10.6h-3.3V114.4z"/>
<path class="st0" d="M316.9,122.7c0,5.5-1.9,8.3-5.7,8.3c-3.8,0-5.7-2.8-5.7-8.4c0-5.6,1.9-8.4,5.7-8.4c1,0,1.8,0.2,2.5,0.5
	c0.7,0.3,1.3,0.9,1.8,1.6c0.5,0.7,0.8,1.6,1,2.7C316.8,120,316.9,121.2,316.9,122.7 M313.4,122.6c0-2.1-0.2-3.6-0.5-4.5
	c-0.3-0.9-0.9-1.3-1.7-1.3c-0.8,0-1.4,0.4-1.7,1.3c-0.3,0.8-0.5,2.3-0.5,4.4c0,2.1,0.2,3.6,0.5,4.4c0.3,0.8,0.9,1.3,1.7,1.3
	c0.8,0,1.3-0.4,1.7-1.2C313.3,126.2,313.4,124.7,313.4,122.6"/>
<rect x="320" y="103.9" class="st0" width="3.3" height="26.8"/>
<path class="st0" d="M337.8,122.7c0,5.5-1.9,8.3-5.7,8.3c-3.8,0-5.7-2.8-5.7-8.4c0-5.6,1.9-8.4,5.7-8.4c1,0,1.8,0.2,2.5,0.5
	c0.7,0.3,1.3,0.9,1.8,1.6c0.5,0.7,0.8,1.6,1,2.7C337.7,120,337.8,121.2,337.8,122.7 M334.3,122.6c0-2.1-0.2-3.6-0.5-4.5
	c-0.3-0.9-0.9-1.3-1.7-1.3c-0.8,0-1.4,0.4-1.7,1.3c-0.3,0.8-0.5,2.3-0.5,4.4c0,2.1,0.2,3.6,0.5,4.4c0.3,0.8,0.9,1.3,1.7,1.3
	c0.8,0,1.3-0.4,1.7-1.2C334.2,126.2,334.3,124.7,334.3,122.6"/>
<path class="st0" d="M347.9,114.4h3.4v16.9c0,2-0.2,3.4-0.7,4.2c-0.8,1.4-2.4,2.1-4.9,2.1c-1.6,0-2.9-0.4-3.8-1.2
	c-0.9-0.8-1.4-2-1.4-3.4l0-0.5h3.2c0,1.7,0.7,2.6,2.1,2.6c0.8,0,1.3-0.2,1.6-0.7c0.3-0.4,0.4-1.3,0.4-2.5v-3.1
	c-0.7,1.5-1.8,2.2-3.3,2.2c-1.5,0-2.6-0.7-3.3-2c-0.7-1.3-1.1-3.4-1.1-6.2c0-3,0.3-5.2,1-6.6c0.7-1.4,1.8-2,3.4-2
	c0.7,0,1.4,0.2,1.8,0.5c0.5,0.3,1,0.9,1.5,1.7V114.4z M348,122.7c0-3.9-0.7-5.9-2.2-5.9c-0.7,0-1.2,0.4-1.6,1.3
	c-0.3,0.9-0.5,2.3-0.5,4.2c0,2.1,0.2,3.6,0.5,4.5c0.4,0.9,0.9,1.3,1.7,1.3c0.8,0,1.3-0.4,1.6-1.2C347.8,126.4,348,124.9,348,122.7"
	/>
<polygon class="st0" points="353.3,114.4 357.1,114.4 359.7,125.8 362.8,114.4 366.2,114.4 358.8,137.5 355.3,137.5 358.1,129.5 "/>
</svg>
