<?xml version="1.0" encoding="utf-8"?>
<!-- Generator: Adobe Illustrator 26.4.1, SVG Export Plug-In . SVG Version: 6.00 Build 0)  -->
<svg version="1.1" id="Layer_1" xmlns="http://www.w3.org/2000/svg" xmlns:xlink="http://www.w3.org/1999/xlink" x="0px" y="0px"
	 viewBox="0 0 627.1 141" style="enable-background:new 0 0 627.1 141;" xml:space="preserve">
<style type="text/css">
	.st0{fill:#706F6F;}
	.st1{fill:#1E4B88;}
</style>
<polygon class="st0" points="25.2,128.8 1,128.8 17.3,35.4 41.6,35.4 "/>
<polygon class="st0" points="61.2,35.4 85.4,35.4 120.1,92.5 130.1,35.4 154.4,35.4 138,128.8 113.8,128.8 79.1,71.7 69.1,128.8 
	44.8,128.8 "/>
<path class="st0" d="M221.1,59c-4.6-4.2-9.3-6.3-14.3-6.3c-6.6,0-11.5,3.4-12.4,8.3c-2.3,13,38.7,6.2,33.4,36.6
	c-1,5.5-4,13.5-6.5,17.2c-6.7,9.7-20.8,16.4-34.7,16.4c-12.1,0-23.2-3.5-31.8-10.7l13.8-19.5c6.3,6.4,12.6,9.5,19.8,9.5
	c7.1,0,12.4-3.6,13.4-9.2c2.6-14.7-38.7-6-33.3-37.3c3.3-18.9,18.3-31.5,37.3-31.5c9.8,0,19.7,2.7,28.2,7.6L221.1,59z"/>
<path class="st0" d="M269.4,85.9c-2,11.2-2,12.8-0.3,16.7c2,4.6,6.5,7.1,12.2,7.1c6.3,0,12.4-2.9,15.6-7.6c2.9-3.9,3.6-6.2,5.4-16.3
	l8.9-50.6h24.2L326,89.2c-2.5,14-5.9,21.2-14.2,28.9c-9.4,8.8-20.9,13.2-35,13.2c-13.7,0-25.5-5.5-30.5-14c-3.8-6.6-4.3-14-1.8-28
	l9.4-53.8h24.2L269.4,85.9z"/>
<path class="st0" d="M416.3,128.8h-30.1l-17-35.9l-6.3,35.9h-24.2l16.4-93.5h37.8c18.2,0,29,10.5,25.7,29.6
	c-2.3,13-11.7,22.7-24.8,25.6L416.3,128.8z M372,77.3c8.4,0,19.6-0.6,21.5-11.6c1.9-10.8-9.3-11.5-17.5-11.5L372,77.3z"/>
<rect x="438.1" y="4.9" class="st1" width="30.5" height="125.7"/>
<path class="st1" d="M606.2,112.9l0.9-1c5.3-5.7,9.4-12.4,12.2-19.8c2.8-7.4,4.3-15.6,4.3-24.2c0-9.3-1.7-18.1-5.2-26.1
	c-3.4-8-8.3-15.1-14.4-21.1c-6.1-6-13.6-10.7-22.1-14.1c-8.5-3.4-18-5.1-28.1-5.1c-10.2,0-19.7,1.7-28.2,5.1
	c-8.5,3.4-15.9,8.1-22,14.1c-6.1,6-10.9,13.1-14.4,21.1c-3.4,8-5.2,16.8-5.2,26.1c0,9.3,1.7,18.1,5.2,26.1c3.4,8,8.3,15.1,14.4,21.1
	c6.1,6,13.5,10.7,22,14.1c8.5,3.4,18,5.1,28.2,5.1c6.1,0,12-0.6,17.5-1.9c5.5-1.3,10.8-3.1,15.7-5.3l0.9-0.4l12,12.3l27.2-4.2
	L606.2,112.9z M553.9,105c-21,0-38-16.7-38-37.1c0-20.5,17.1-37.1,38-37.1c21,0,38,16.7,38,37.1C592,88.4,574.9,105,553.9,105"/>
</svg>
